<?xml version="1.0" encoding="UTF-8" standalone="no"?>
<!DOCTYPE svg PUBLIC "-//W3C//DTD SVG 1.1//EN"
 "http://www.w3.org/Graphics/SVG/1.1/DTD/svg11.dtd">
<!-- Generated by graphviz version 2.50.0 (0)
 -->
<!-- Pages: 1 -->
<svg width="1371pt" height="692pt"
 viewBox="0.00 0.00 1371.00 692.00" xmlns="http://www.w3.org/2000/svg" xmlns:xlink="http://www.w3.org/1999/xlink">
<g id="graph0" class="graph" transform="scale(1 1) rotate(0) translate(4 688)">
<polygon fill="white" stroke="transparent" points="-4,4 -4,-688 1367,-688 1367,4 -4,4"/>
<!-- 2735503146140861398 -->
<g id="node1" class="node">
<title>2735503146140861398</title>
<polygon fill="none" stroke="black" points="354,-684 0,-684 0,-648 354,-648 354,-684"/>
<text text-anchor="middle" x="177" y="-661" font-family="Helvetica,sans-Serif" font-size="20.00">Assign(Assign, dummy_sum, Add)</text>
</g>
<!-- 3603505993881573573 -->
<g id="node2" class="node">
<title>3603505993881573573</title>
<polygon fill="none" stroke="black" points="355.5,-612 136.5,-612 136.5,-576 355.5,-576 355.5,-612"/>
<text text-anchor="middle" x="246" y="-589" font-family="Helvetica,sans-Serif" font-size="20.00">Add(Add, Projection)</text>
</g>
<!-- 3603505993881573573&#45;&gt;2735503146140861398 -->
<g id="edge1" class="edge">
<title>3603505993881573573&#45;&gt;2735503146140861398</title>
<path fill="none" stroke="black" d="M228.94,-612.3C220.5,-620.86 210.18,-631.34 200.96,-640.7"/>
<polygon fill="black" stroke="black" points="198.39,-638.32 193.86,-647.9 203.37,-643.23 198.39,-638.32"/>
</g>
<!-- 988531152956462450 -->
<g id="node3" class="node">
<title>988531152956462450</title>
<polygon fill="none" stroke="black" points="419.5,-252 136.5,-252 136.5,-216 419.5,-216 419.5,-252"/>
<text text-anchor="middle" x="278" y="-229" font-family="Helvetica,sans-Serif" font-size="20.00">Projection(Assign, amount)</text>
</g>
<!-- 988531152956462450&#45;&gt;3603505993881573573 -->
<g id="edge3" class="edge">
<title>988531152956462450&#45;&gt;3603505993881573573</title>
<path fill="none" stroke="black" d="M239.21,-252.17C223.88,-260.82 207.45,-272.75 197,-288 174.13,-321.36 178,-336.55 178,-377 178,-377 178,-377 178,-451 178,-495.4 205.37,-540.62 225.38,-567.75"/>
<polygon fill="black" stroke="black" points="222.74,-570.05 231.58,-575.89 228.31,-565.82 222.74,-570.05"/>
</g>
<!-- &#45;7702075306777433425 -->
<g id="node4" class="node">
<title>&#45;7702075306777433425</title>
<polygon fill="none" stroke="black" points="652.5,-108 357.5,-108 357.5,-72 652.5,-72 652.5,-108"/>
<text text-anchor="middle" x="505" y="-85" font-family="Helvetica,sans-Serif" font-size="20.00">Assign(ReadParquetFSSpec)</text>
</g>
<!-- &#45;7702075306777433425&#45;&gt;2735503146140861398 -->
<g id="edge2" class="edge">
<title>&#45;7702075306777433425&#45;&gt;2735503146140861398</title>
<path fill="none" stroke="black" d="M396.52,-108.01C278.97,-129.57 108,-171.51 108,-233 108,-233 108,-233 108,-523 108,-563.45 108.2,-576.19 127,-612 132.49,-622.46 140.63,-632.35 148.76,-640.68"/>
<polygon fill="black" stroke="black" points="146.53,-643.4 156.14,-647.87 151.42,-638.39 146.53,-643.4"/>
</g>
<!-- &#45;7702075306777433425&#45;&gt;988531152956462450 -->
<g id="edge5" class="edge">
<title>&#45;7702075306777433425&#45;&gt;988531152956462450</title>
<path fill="none" stroke="black" d="M477.62,-108.13C436.71,-133.72 359.61,-181.95 314.13,-210.4"/>
<polygon fill="black" stroke="black" points="312.1,-207.54 305.48,-215.81 315.81,-213.47 312.1,-207.54"/>
</g>
<!-- &#45;419303778320469301 -->
<g id="node7" class="node">
<title>&#45;419303778320469301</title>
<polygon fill="none" stroke="black" points="458,-324 206,-324 206,-288 458,-288 458,-324"/>
<text text-anchor="middle" x="332" y="-301" font-family="Helvetica,sans-Serif" font-size="20.00">Projection(Assign, MCC)</text>
</g>
<!-- &#45;7702075306777433425&#45;&gt;&#45;419303778320469301 -->
<g id="edge9" class="edge">
<title>&#45;7702075306777433425&#45;&gt;&#45;419303778320469301</title>
<path fill="none" stroke="black" d="M493.23,-108.23C486.56,-118.39 478.31,-131.64 472,-144 448.44,-190.17 462.43,-213.26 428,-252 416.58,-264.84 401.28,-275.22 386.26,-283.27"/>
<polygon fill="black" stroke="black" points="384.3,-280.34 376.97,-287.99 387.47,-286.58 384.3,-280.34"/>
</g>
<!-- &#45;7885743632687944473 -->
<g id="node9" class="node">
<title>&#45;7885743632687944473</title>
<polygon fill="none" stroke="black" points="601,-396 363,-396 363,-360 601,-360 601,-396"/>
<text text-anchor="middle" x="482" y="-373" font-family="Helvetica,sans-Serif" font-size="20.00">Projection(Assign, Zip)</text>
</g>
<!-- &#45;7702075306777433425&#45;&gt;&#45;7885743632687944473 -->
<g id="edge12" class="edge">
<title>&#45;7702075306777433425&#45;&gt;&#45;7885743632687944473</title>
<path fill="none" stroke="black" d="M503.63,-108.03C499.8,-155.71 488.93,-290.82 484.22,-349.37"/>
<polygon fill="black" stroke="black" points="480.7,-349.45 483.39,-359.69 487.68,-350.01 480.7,-349.45"/>
</g>
<!-- 587353695157823042 -->
<g id="node11" class="node">
<title>587353695157823042</title>
<polygon fill="none" stroke="black" points="760,-252 514,-252 514,-216 760,-216 760,-252"/>
<text text-anchor="middle" x="637" y="-229" font-family="Helvetica,sans-Serif" font-size="20.00">Projection(Assign, Day)</text>
</g>
<!-- &#45;7702075306777433425&#45;&gt;587353695157823042 -->
<g id="edge15" class="edge">
<title>&#45;7702075306777433425&#45;&gt;587353695157823042</title>
<path fill="none" stroke="black" d="M508.8,-108.21C513.81,-127.59 524.28,-159.1 543,-180 554.39,-192.71 569.57,-203.09 584.41,-211.18"/>
<polygon fill="black" stroke="black" points="583.08,-214.43 593.57,-215.93 586.3,-208.22 583.08,-214.43"/>
</g>
<!-- 2253082037755876837 -->
<g id="node13" class="node">
<title>2253082037755876837</title>
<polygon fill="none" stroke="black" points="821.5,-180 552.5,-180 552.5,-144 821.5,-144 821.5,-180"/>
<text text-anchor="middle" x="687" y="-157" font-family="Helvetica,sans-Serif" font-size="20.00">Projection(Assign, Month)</text>
</g>
<!-- &#45;7702075306777433425&#45;&gt;2253082037755876837 -->
<g id="edge18" class="edge">
<title>&#45;7702075306777433425&#45;&gt;2253082037755876837</title>
<path fill="none" stroke="black" d="M549.52,-108.12C574.73,-117.82 606.45,-130.02 633.07,-140.26"/>
<polygon fill="black" stroke="black" points="632.03,-143.61 642.62,-143.93 634.55,-137.08 632.03,-143.61"/>
</g>
<!-- 5135482502870809332 -->
<g id="node15" class="node">
<title>5135482502870809332</title>
<polygon fill="none" stroke="black" points="1092.5,-180 839.5,-180 839.5,-144 1092.5,-144 1092.5,-180"/>
<text text-anchor="middle" x="966" y="-157" font-family="Helvetica,sans-Serif" font-size="20.00">Projection(Assign, Card)</text>
</g>
<!-- &#45;7702075306777433425&#45;&gt;5135482502870809332 -->
<g id="edge21" class="edge">
<title>&#45;7702075306777433425&#45;&gt;5135482502870809332</title>
<path fill="none" stroke="black" d="M617.18,-108.03C685.64,-118.43 773.21,-131.73 843.48,-142.4"/>
<polygon fill="black" stroke="black" points="843.3,-145.91 853.71,-143.95 844.35,-138.99 843.3,-145.91"/>
</g>
<!-- 565066691843662093 -->
<g id="node16" class="node">
<title>565066691843662093</title>
<polygon fill="none" stroke="black" points="1363,-180 1111,-180 1111,-144 1363,-144 1363,-180"/>
<text text-anchor="middle" x="1237" y="-157" font-family="Helvetica,sans-Serif" font-size="20.00">Projection(Assign, User)</text>
</g>
<!-- &#45;7702075306777433425&#45;&gt;565066691843662093 -->
<g id="edge22" class="edge">
<title>&#45;7702075306777433425&#45;&gt;565066691843662093</title>
<path fill="none" stroke="black" d="M652.71,-102.66C770.93,-112.34 941.23,-127.06 1100.69,-143.99"/>
<polygon fill="black" stroke="black" points="1100.38,-147.48 1110.69,-145.06 1101.12,-140.52 1100.38,-147.48"/>
</g>
<!-- &#45;8056361282312362983 -->
<g id="node5" class="node">
<title>&#45;8056361282312362983</title>
<polygon fill="none" stroke="black" points="612.5,-36 397.5,-36 397.5,0 612.5,0 612.5,-36"/>
<text text-anchor="middle" x="505" y="-13" font-family="Helvetica,sans-Serif" font-size="20.00">ReadParquetFSSpec</text>
</g>
<!-- &#45;8056361282312362983&#45;&gt;&#45;7702075306777433425 -->
<g id="edge6" class="edge">
<title>&#45;8056361282312362983&#45;&gt;&#45;7702075306777433425</title>
<path fill="none" stroke="black" d="M505,-36.3C505,-44.02 505,-53.29 505,-61.89"/>
<polygon fill="black" stroke="black" points="501.5,-61.9 505,-71.9 508.5,-61.9 501.5,-61.9"/>
</g>
<!-- &#45;2813515320920688924 -->
<g id="node6" class="node">
<title>&#45;2813515320920688924</title>
<polygon fill="none" stroke="black" points="441.5,-540 222.5,-540 222.5,-504 441.5,-504 441.5,-540"/>
<text text-anchor="middle" x="332" y="-517" font-family="Helvetica,sans-Serif" font-size="20.00">Add(Add, Projection)</text>
</g>
<!-- &#45;2813515320920688924&#45;&gt;3603505993881573573 -->
<g id="edge4" class="edge">
<title>&#45;2813515320920688924&#45;&gt;3603505993881573573</title>
<path fill="none" stroke="black" d="M310.74,-540.3C299.91,-549.12 286.58,-559.97 274.84,-569.53"/>
<polygon fill="black" stroke="black" points="272.56,-566.87 267.01,-575.9 276.98,-572.3 272.56,-566.87"/>
</g>
<!-- &#45;419303778320469301&#45;&gt;&#45;2813515320920688924 -->
<g id="edge8" class="edge">
<title>&#45;419303778320469301&#45;&gt;&#45;2813515320920688924</title>
<path fill="none" stroke="black" d="M332,-324.15C332,-361.17 332,-448.82 332,-493.61"/>
<polygon fill="black" stroke="black" points="328.5,-493.77 332,-503.77 335.5,-493.77 328.5,-493.77"/>
</g>
<!-- 2906402002085148328 -->
<g id="node8" class="node">
<title>2906402002085148328</title>
<polygon fill="none" stroke="black" points="591.5,-468 372.5,-468 372.5,-432 591.5,-432 591.5,-468"/>
<text text-anchor="middle" x="482" y="-445" font-family="Helvetica,sans-Serif" font-size="20.00">Add(Add, Projection)</text>
</g>
<!-- 2906402002085148328&#45;&gt;&#45;2813515320920688924 -->
<g id="edge7" class="edge">
<title>2906402002085148328&#45;&gt;&#45;2813515320920688924</title>
<path fill="none" stroke="black" d="M445.31,-468.12C424.98,-477.61 399.53,-489.49 377.9,-499.58"/>
<polygon fill="black" stroke="black" points="376.16,-496.53 368.57,-503.93 379.12,-502.87 376.16,-496.53"/>
</g>
<!-- &#45;7885743632687944473&#45;&gt;2906402002085148328 -->
<g id="edge11" class="edge">
<title>&#45;7885743632687944473&#45;&gt;2906402002085148328</title>
<path fill="none" stroke="black" d="M482,-396.3C482,-404.02 482,-413.29 482,-421.89"/>
<polygon fill="black" stroke="black" points="478.5,-421.9 482,-431.9 485.5,-421.9 478.5,-421.9"/>
</g>
<!-- &#45;8537240536804120976 -->
<g id="node10" class="node">
<title>&#45;8537240536804120976</title>
<polygon fill="none" stroke="black" points="838.5,-396 619.5,-396 619.5,-360 838.5,-360 838.5,-396"/>
<text text-anchor="middle" x="729" y="-373" font-family="Helvetica,sans-Serif" font-size="20.00">Add(Add, Projection)</text>
</g>
<!-- &#45;8537240536804120976&#45;&gt;2906402002085148328 -->
<g id="edge10" class="edge">
<title>&#45;8537240536804120976&#45;&gt;2906402002085148328</title>
<path fill="none" stroke="black" d="M668.89,-396.03C633.63,-406.03 588.91,-418.7 552.06,-429.15"/>
<polygon fill="black" stroke="black" points="551.04,-425.8 542.38,-431.89 552.95,-432.53 551.04,-425.8"/>
</g>
<!-- 587353695157823042&#45;&gt;&#45;8537240536804120976 -->
<g id="edge13" class="edge">
<title>587353695157823042&#45;&gt;&#45;8537240536804120976</title>
<path fill="none" stroke="black" d="M640.49,-252.24C644.89,-271.09 653.79,-301.58 669,-324 676.45,-334.98 686.69,-345.14 696.6,-353.57"/>
<polygon fill="black" stroke="black" points="694.46,-356.34 704.42,-359.94 698.88,-350.91 694.46,-356.34"/>
</g>
<!-- &#45;8560423497648024650 -->
<g id="node12" class="node">
<title>&#45;8560423497648024650</title>
<polygon fill="none" stroke="black" points="897.5,-324 678.5,-324 678.5,-288 897.5,-288 897.5,-324"/>
<text text-anchor="middle" x="788" y="-301" font-family="Helvetica,sans-Serif" font-size="20.00">Add(Add, Projection)</text>
</g>
<!-- &#45;8560423497648024650&#45;&gt;&#45;8537240536804120976 -->
<g id="edge14" class="edge">
<title>&#45;8560423497648024650&#45;&gt;&#45;8537240536804120976</title>
<path fill="none" stroke="black" d="M773.42,-324.3C766.34,-332.7 757.72,-342.93 749.95,-352.14"/>
<polygon fill="black" stroke="black" points="747.19,-349.99 743.42,-359.9 752.54,-354.51 747.19,-349.99"/>
</g>
<!-- 2253082037755876837&#45;&gt;&#45;8560423497648024650 -->
<g id="edge16" class="edge">
<title>2253082037755876837&#45;&gt;&#45;8560423497648024650</title>
<path fill="none" stroke="black" d="M726.26,-180.07C741.79,-188.71 758.42,-200.65 769,-216 781.5,-234.13 786.02,-258.91 787.55,-277.72"/>
<polygon fill="black" stroke="black" points="784.06,-277.96 788.13,-287.74 791.04,-277.55 784.06,-277.96"/>
</g>
<!-- 6024318351174496447 -->
<g id="node14" class="node">
<title>6024318351174496447</title>
<polygon fill="none" stroke="black" points="1105,-252 827,-252 827,-216 1105,-216 1105,-252"/>
<text text-anchor="middle" x="966" y="-229" font-family="Helvetica,sans-Serif" font-size="20.00">Add(Projection, Projection)</text>
</g>
<!-- 6024318351174496447&#45;&gt;&#45;8560423497648024650 -->
<g id="edge17" class="edge">
<title>6024318351174496447&#45;&gt;&#45;8560423497648024650</title>
<path fill="none" stroke="black" d="M922.46,-252.12C897.8,-261.82 866.78,-274.02 840.75,-284.26"/>
<polygon fill="black" stroke="black" points="839.43,-281.01 831.4,-287.93 841.99,-287.53 839.43,-281.01"/>
</g>
<!-- 5135482502870809332&#45;&gt;6024318351174496447 -->
<g id="edge19" class="edge">
<title>5135482502870809332&#45;&gt;6024318351174496447</title>
<path fill="none" stroke="black" d="M966,-180.3C966,-188.02 966,-197.29 966,-205.89"/>
<polygon fill="black" stroke="black" points="962.5,-205.9 966,-215.9 969.5,-205.9 962.5,-205.9"/>
</g>
<!-- 565066691843662093&#45;&gt;6024318351174496447 -->
<g id="edge20" class="edge">
<title>565066691843662093&#45;&gt;6024318351174496447</title>
<path fill="none" stroke="black" d="M1171.05,-180.03C1132.12,-190.09 1082.67,-202.86 1042.09,-213.35"/>
<polygon fill="black" stroke="black" points="1041.05,-210 1032.24,-215.89 1042.8,-216.78 1041.05,-210"/>
</g>
</g>
</svg>
