<?xml version="1.0" encoding="UTF-8" standalone="no"?>
<!DOCTYPE svg PUBLIC "-//W3C//DTD SVG 1.1//EN"
 "http://www.w3.org/Graphics/SVG/1.1/DTD/svg11.dtd">
<!-- Generated by graphviz version 2.50.0 (0)
 -->
<!-- Pages: 1 -->
<svg width="286pt" height="188pt"
 viewBox="0.00 0.00 286.00 188.00" xmlns="http://www.w3.org/2000/svg" xmlns:xlink="http://www.w3.org/1999/xlink">
<g id="graph0" class="graph" transform="scale(1 1) rotate(0) translate(4 184)">
<polygon fill="white" stroke="transparent" points="-4,4 -4,-184 282,-184 282,4 -4,4"/>
<!-- &#45;3337003780880441940 -->
<g id="node1" class="node">
<title>&#45;3337003780880441940</title>
<polygon fill="none" stroke="black" points="239,-180 39,-180 39,-144 239,-144 239,-180"/>
<text text-anchor="middle" x="139" y="-157" font-family="Helvetica,sans-Serif" font-size="20.00">Unique(Projection)</text>
</g>
<!-- 5606862517713692491 -->
<g id="node2" class="node">
<title>5606862517713692491</title>
<polygon fill="none" stroke="black" points="278,-108 0,-108 0,-72 278,-72 278,-108"/>
<text text-anchor="middle" x="139" y="-85" font-family="Helvetica,sans-Serif" font-size="20.00">Projection(ReadCSV, Card)</text>
</g>
<!-- 5606862517713692491&#45;&gt;&#45;3337003780880441940 -->
<g id="edge1" class="edge">
<title>5606862517713692491&#45;&gt;&#45;3337003780880441940</title>
<path fill="none" stroke="black" d="M139,-108.3C139,-116.02 139,-125.29 139,-133.89"/>
<polygon fill="black" stroke="black" points="135.5,-133.9 139,-143.9 142.5,-133.9 135.5,-133.9"/>
</g>
<!-- 2472794228226475018 -->
<g id="node3" class="node">
<title>2472794228226475018</title>
<polygon fill="none" stroke="black" points="192.5,-36 85.5,-36 85.5,0 192.5,0 192.5,-36"/>
<text text-anchor="middle" x="139" y="-13" font-family="Helvetica,sans-Serif" font-size="20.00">ReadCSV</text>
</g>
<!-- 2472794228226475018&#45;&gt;5606862517713692491 -->
<g id="edge2" class="edge">
<title>2472794228226475018&#45;&gt;5606862517713692491</title>
<path fill="none" stroke="black" d="M139,-36.3C139,-44.02 139,-53.29 139,-61.89"/>
<polygon fill="black" stroke="black" points="135.5,-61.9 139,-71.9 142.5,-61.9 135.5,-61.9"/>
</g>
</g>
</svg>
