<?xml version="1.0" encoding="UTF-8" standalone="no"?>
<!DOCTYPE svg PUBLIC "-//W3C//DTD SVG 1.1//EN"
 "http://www.w3.org/Graphics/SVG/1.1/DTD/svg11.dtd">
<!-- Generated by graphviz version 2.50.0 (0)
 -->
<!-- Pages: 1 -->
<svg width="625pt" height="260pt"
 viewBox="0.00 0.00 625.00 260.00" xmlns="http://www.w3.org/2000/svg" xmlns:xlink="http://www.w3.org/1999/xlink">
<g id="graph0" class="graph" transform="scale(1 1) rotate(0) translate(4 256)">
<polygon fill="white" stroke="transparent" points="-4,4 -4,-256 621,-256 621,4 -4,4"/>
<!-- 5463996218527539142 -->
<g id="node1" class="node">
<title>5463996218527539142</title>
<polygon fill="none" stroke="black" points="420.5,-252 196.5,-252 196.5,-216 420.5,-216 420.5,-252"/>
<text text-anchor="middle" x="308.5" y="-229" font-family="Helvetica,sans-Serif" font-size="20.00">SetIndex(SortValues)</text>
</g>
<!-- &#45;4925516088617439633 -->
<g id="node2" class="node">
<title>&#45;4925516088617439633</title>
<polygon fill="none" stroke="black" points="425.5,-180 191.5,-180 191.5,-144 425.5,-144 425.5,-180"/>
<text text-anchor="middle" x="308.5" y="-157" font-family="Helvetica,sans-Serif" font-size="20.00">SortValues(Projection)</text>
</g>
<!-- &#45;4925516088617439633&#45;&gt;5463996218527539142 -->
<g id="edge1" class="edge">
<title>&#45;4925516088617439633&#45;&gt;5463996218527539142</title>
<path fill="none" stroke="black" d="M308.5,-180.3C308.5,-188.02 308.5,-197.29 308.5,-205.89"/>
<polygon fill="black" stroke="black" points="305,-205.9 308.5,-215.9 312,-205.9 305,-205.9"/>
</g>
<!-- 7019358104619203816 -->
<g id="node3" class="node">
<title>7019358104619203816</title>
<polygon fill="none" stroke="black" points="617,-108 0,-108 0,-72 617,-72 617,-108"/>
<text text-anchor="middle" x="308.5" y="-85" font-family="Helvetica,sans-Serif" font-size="20.00">Projection(ReadParquetFSSpec, [&#39;Year&#39;, &#39;dt&#39;, &#39;User&#39;, &#39;amount&#39;])</text>
</g>
<!-- 7019358104619203816&#45;&gt;&#45;4925516088617439633 -->
<g id="edge2" class="edge">
<title>7019358104619203816&#45;&gt;&#45;4925516088617439633</title>
<path fill="none" stroke="black" d="M308.5,-108.3C308.5,-116.02 308.5,-125.29 308.5,-133.89"/>
<polygon fill="black" stroke="black" points="305,-133.9 308.5,-143.9 312,-133.9 305,-133.9"/>
</g>
<!-- &#45;4685044319452057024 -->
<g id="node4" class="node">
<title>&#45;4685044319452057024</title>
<polygon fill="none" stroke="black" points="416,-36 201,-36 201,0 416,0 416,-36"/>
<text text-anchor="middle" x="308.5" y="-13" font-family="Helvetica,sans-Serif" font-size="20.00">ReadParquetFSSpec</text>
</g>
<!-- &#45;4685044319452057024&#45;&gt;7019358104619203816 -->
<g id="edge3" class="edge">
<title>&#45;4685044319452057024&#45;&gt;7019358104619203816</title>
<path fill="none" stroke="black" d="M308.5,-36.3C308.5,-44.02 308.5,-53.29 308.5,-61.89"/>
<polygon fill="black" stroke="black" points="305,-61.9 308.5,-71.9 312,-61.9 305,-61.9"/>
</g>
</g>
</svg>
