<?xml version="1.0" encoding="UTF-8" standalone="no"?>
<!DOCTYPE svg PUBLIC "-//W3C//DTD SVG 1.1//EN"
 "http://www.w3.org/Graphics/SVG/1.1/DTD/svg11.dtd">
<!-- Generated by graphviz version 2.50.0 (0)
 -->
<!-- Pages: 1 -->
<svg width="328pt" height="188pt"
 viewBox="0.00 0.00 328.00 188.00" xmlns="http://www.w3.org/2000/svg" xmlns:xlink="http://www.w3.org/1999/xlink">
<g id="graph0" class="graph" transform="scale(1 1) rotate(0) translate(4 184)">
<polygon fill="white" stroke="transparent" points="-4,4 -4,-184 324,-184 324,4 -4,4"/>
<!-- &#45;8135321702259878514 -->
<g id="node1" class="node">
<title>&#45;8135321702259878514</title>
<polygon fill="none" stroke="black" points="260,-180 60,-180 60,-144 260,-144 260,-180"/>
<text text-anchor="middle" x="160" y="-157" font-family="Helvetica,sans-Serif" font-size="20.00">Unique(Projection)</text>
</g>
<!-- 8413610462894958476 -->
<g id="node2" class="node">
<title>8413610462894958476</title>
<polygon fill="none" stroke="black" points="320,-108 0,-108 0,-72 320,-72 320,-108"/>
<text text-anchor="middle" x="160" y="-85" font-family="Helvetica,sans-Serif" font-size="20.00">Projection(ReadCSV, Use Chip)</text>
</g>
<!-- 8413610462894958476&#45;&gt;&#45;8135321702259878514 -->
<g id="edge1" class="edge">
<title>8413610462894958476&#45;&gt;&#45;8135321702259878514</title>
<path fill="none" stroke="black" d="M160,-108.3C160,-116.02 160,-125.29 160,-133.89"/>
<polygon fill="black" stroke="black" points="156.5,-133.9 160,-143.9 163.5,-133.9 156.5,-133.9"/>
</g>
<!-- 6069601063658719118 -->
<g id="node3" class="node">
<title>6069601063658719118</title>
<polygon fill="none" stroke="black" points="213.5,-36 106.5,-36 106.5,0 213.5,0 213.5,-36"/>
<text text-anchor="middle" x="160" y="-13" font-family="Helvetica,sans-Serif" font-size="20.00">ReadCSV</text>
</g>
<!-- 6069601063658719118&#45;&gt;8413610462894958476 -->
<g id="edge2" class="edge">
<title>6069601063658719118&#45;&gt;8413610462894958476</title>
<path fill="none" stroke="black" d="M160,-36.3C160,-44.02 160,-53.29 160,-61.89"/>
<polygon fill="black" stroke="black" points="156.5,-61.9 160,-71.9 163.5,-61.9 156.5,-61.9"/>
</g>
</g>
</svg>
