<?xml version="1.0" encoding="UTF-8" standalone="no"?>
<!DOCTYPE svg PUBLIC "-//W3C//DTD SVG 1.1//EN"
 "http://www.w3.org/Graphics/SVG/1.1/DTD/svg11.dtd">
<!-- Generated by graphviz version 2.50.0 (0)
 -->
<!-- Pages: 1 -->
<svg width="632pt" height="332pt"
 viewBox="0.00 0.00 631.50 332.00" xmlns="http://www.w3.org/2000/svg" xmlns:xlink="http://www.w3.org/1999/xlink">
<g id="graph0" class="graph" transform="scale(1 1) rotate(0) translate(4 328)">
<polygon fill="white" stroke="transparent" points="-4,4 -4,-328 627.5,-328 627.5,4 -4,4"/>
<!-- 8530392715446083792 -->
<g id="node1" class="node">
<title>8530392715446083792</title>
<polygon fill="none" stroke="black" points="523,-324 0,-324 0,-288 523,-288 523,-324"/>
<text text-anchor="middle" x="261.5" y="-301" font-family="Helvetica,sans-Serif" font-size="20.00">Assign(SortValues, by_usr_lag_amt, GroupByApply)</text>
</g>
<!-- 1078908315052517382 -->
<g id="node2" class="node">
<title>1078908315052517382</title>
<polygon fill="none" stroke="black" points="515.5,-252 243.5,-252 243.5,-216 515.5,-216 515.5,-252"/>
<text text-anchor="middle" x="379.5" y="-229" font-family="Helvetica,sans-Serif" font-size="20.00">GroupByApply(Projection)</text>
</g>
<!-- 1078908315052517382&#45;&gt;8530392715446083792 -->
<g id="edge2" class="edge">
<title>1078908315052517382&#45;&gt;8530392715446083792</title>
<path fill="none" stroke="black" d="M350.63,-252.12C335.21,-261.28 316.02,-272.66 299.4,-282.52"/>
<polygon fill="black" stroke="black" points="297.29,-279.7 290.48,-287.81 300.86,-285.72 297.29,-279.7"/>
</g>
<!-- 1960363409910963646 -->
<g id="node3" class="node">
<title>1960363409910963646</title>
<polygon fill="none" stroke="black" points="623.5,-180 207.5,-180 207.5,-144 623.5,-144 623.5,-180"/>
<text text-anchor="middle" x="415.5" y="-157" font-family="Helvetica,sans-Serif" font-size="20.00">Projection(SortValues, [&#39;User&#39;, &#39;amount&#39;])</text>
</g>
<!-- 1960363409910963646&#45;&gt;1078908315052517382 -->
<g id="edge3" class="edge">
<title>1960363409910963646&#45;&gt;1078908315052517382</title>
<path fill="none" stroke="black" d="M406.6,-180.3C402.5,-188.27 397.55,-197.9 393.01,-206.74"/>
<polygon fill="black" stroke="black" points="389.76,-205.4 388.3,-215.9 395.98,-208.6 389.76,-205.4"/>
</g>
<!-- 6378748985343895492 -->
<g id="node4" class="node">
<title>6378748985343895492</title>
<polygon fill="none" stroke="black" points="465,-108 130,-108 130,-72 465,-72 465,-108"/>
<text text-anchor="middle" x="297.5" y="-85" font-family="Helvetica,sans-Serif" font-size="20.00">SortValues(ReadParquetFSSpec)</text>
</g>
<!-- 6378748985343895492&#45;&gt;8530392715446083792 -->
<g id="edge1" class="edge">
<title>6378748985343895492&#45;&gt;8530392715446083792</title>
<path fill="none" stroke="black" d="M241.87,-108.04C224.95,-116.12 208.27,-127.69 198.5,-144 171.63,-188.87 210.52,-247.24 238.1,-279.95"/>
<polygon fill="black" stroke="black" points="235.62,-282.43 244.82,-287.69 240.91,-277.84 235.62,-282.43"/>
</g>
<!-- 6378748985343895492&#45;&gt;1960363409910963646 -->
<g id="edge4" class="edge">
<title>6378748985343895492&#45;&gt;1960363409910963646</title>
<path fill="none" stroke="black" d="M326.37,-108.12C341.79,-117.28 360.98,-128.66 377.6,-138.52"/>
<polygon fill="black" stroke="black" points="376.14,-141.72 386.52,-143.81 379.71,-135.7 376.14,-141.72"/>
</g>
<!-- 4546796169337369218 -->
<g id="node5" class="node">
<title>4546796169337369218</title>
<polygon fill="none" stroke="black" points="405,-36 190,-36 190,0 405,0 405,-36"/>
<text text-anchor="middle" x="297.5" y="-13" font-family="Helvetica,sans-Serif" font-size="20.00">ReadParquetFSSpec</text>
</g>
<!-- 4546796169337369218&#45;&gt;6378748985343895492 -->
<g id="edge5" class="edge">
<title>4546796169337369218&#45;&gt;6378748985343895492</title>
<path fill="none" stroke="black" d="M297.5,-36.3C297.5,-44.02 297.5,-53.29 297.5,-61.89"/>
<polygon fill="black" stroke="black" points="294,-61.9 297.5,-71.9 301,-61.9 294,-61.9"/>
</g>
</g>
</svg>
