<?xml version="1.0" encoding="UTF-8" standalone="no"?>
<!DOCTYPE svg PUBLIC "-//W3C//DTD SVG 1.1//EN"
 "http://www.w3.org/Graphics/SVG/1.1/DTD/svg11.dtd">
<!-- Generated by graphviz version 2.50.0 (0)
 -->
<!-- Pages: 1 -->
<svg width="625pt" height="548pt"
 viewBox="0.00 0.00 625.00 548.00" xmlns="http://www.w3.org/2000/svg" xmlns:xlink="http://www.w3.org/1999/xlink">
<g id="graph0" class="graph" transform="scale(1 1) rotate(0) translate(4 544)">
<polygon fill="white" stroke="transparent" points="-4,4 -4,-544 621,-544 621,4 -4,4"/>
<!-- 7551607348025484200 -->
<g id="node1" class="node">
<title>7551607348025484200</title>
<polygon fill="none" stroke="black" points="472.5,-540 144.5,-540 144.5,-504 472.5,-504 472.5,-540"/>
<text text-anchor="middle" x="308.5" y="-517" font-family="Helvetica,sans-Serif" font-size="20.00">Projection(ResetIndex, amount)</text>
</g>
<!-- &#45;5625336708134268907 -->
<g id="node2" class="node">
<title>&#45;5625336708134268907</title>
<polygon fill="none" stroke="black" points="435,-468 182,-468 182,-432 435,-432 435,-468"/>
<text text-anchor="middle" x="308.5" y="-445" font-family="Helvetica,sans-Serif" font-size="20.00">ResetIndex(RollingSum)</text>
</g>
<!-- &#45;5625336708134268907&#45;&gt;7551607348025484200 -->
<g id="edge1" class="edge">
<title>&#45;5625336708134268907&#45;&gt;7551607348025484200</title>
<path fill="none" stroke="black" d="M308.5,-468.3C308.5,-476.02 308.5,-485.29 308.5,-493.89"/>
<polygon fill="black" stroke="black" points="305,-493.9 308.5,-503.9 312,-493.9 305,-493.9"/>
</g>
<!-- 6991103793522056957 -->
<g id="node3" class="node">
<title>6991103793522056957</title>
<polygon fill="none" stroke="black" points="428.5,-396 188.5,-396 188.5,-360 428.5,-360 428.5,-396"/>
<text text-anchor="middle" x="308.5" y="-373" font-family="Helvetica,sans-Serif" font-size="20.00">RollingSum(Projection)</text>
</g>
<!-- 6991103793522056957&#45;&gt;&#45;5625336708134268907 -->
<g id="edge2" class="edge">
<title>6991103793522056957&#45;&gt;&#45;5625336708134268907</title>
<path fill="none" stroke="black" d="M308.5,-396.3C308.5,-404.02 308.5,-413.29 308.5,-421.89"/>
<polygon fill="black" stroke="black" points="305,-421.9 308.5,-431.9 312,-421.9 305,-421.9"/>
</g>
<!-- &#45;3858299055142986541 -->
<g id="node4" class="node">
<title>&#45;3858299055142986541</title>
<polygon fill="none" stroke="black" points="518,-324 99,-324 99,-288 518,-288 518,-324"/>
<text text-anchor="middle" x="308.5" y="-301" font-family="Helvetica,sans-Serif" font-size="20.00">Projection(Repartition, [&#39;User&#39;, &#39;amount&#39;])</text>
</g>
<!-- &#45;3858299055142986541&#45;&gt;6991103793522056957 -->
<g id="edge3" class="edge">
<title>&#45;3858299055142986541&#45;&gt;6991103793522056957</title>
<path fill="none" stroke="black" d="M308.5,-324.3C308.5,-332.02 308.5,-341.29 308.5,-349.89"/>
<polygon fill="black" stroke="black" points="305,-349.9 308.5,-359.9 312,-349.9 305,-349.9"/>
</g>
<!-- &#45;6004285170140707429 -->
<g id="node5" class="node">
<title>&#45;6004285170140707429</title>
<polygon fill="none" stroke="black" points="422,-252 195,-252 195,-216 422,-216 422,-252"/>
<text text-anchor="middle" x="308.5" y="-229" font-family="Helvetica,sans-Serif" font-size="20.00">Repartition(SetIndex)</text>
</g>
<!-- &#45;6004285170140707429&#45;&gt;&#45;3858299055142986541 -->
<g id="edge4" class="edge">
<title>&#45;6004285170140707429&#45;&gt;&#45;3858299055142986541</title>
<path fill="none" stroke="black" d="M308.5,-252.3C308.5,-260.02 308.5,-269.29 308.5,-277.89"/>
<polygon fill="black" stroke="black" points="305,-277.9 308.5,-287.9 312,-277.9 305,-277.9"/>
</g>
<!-- &#45;2406770581442385140 -->
<g id="node6" class="node">
<title>&#45;2406770581442385140</title>
<polygon fill="none" stroke="black" points="417,-180 200,-180 200,-144 417,-144 417,-180"/>
<text text-anchor="middle" x="308.5" y="-157" font-family="Helvetica,sans-Serif" font-size="20.00">SetIndex(Projection)</text>
</g>
<!-- &#45;2406770581442385140&#45;&gt;&#45;6004285170140707429 -->
<g id="edge5" class="edge">
<title>&#45;2406770581442385140&#45;&gt;&#45;6004285170140707429</title>
<path fill="none" stroke="black" d="M308.5,-180.3C308.5,-188.02 308.5,-197.29 308.5,-205.89"/>
<polygon fill="black" stroke="black" points="305,-205.9 308.5,-215.9 312,-205.9 305,-205.9"/>
</g>
<!-- 7987730228533462826 -->
<g id="node7" class="node">
<title>7987730228533462826</title>
<polygon fill="none" stroke="black" points="617,-108 0,-108 0,-72 617,-72 617,-108"/>
<text text-anchor="middle" x="308.5" y="-85" font-family="Helvetica,sans-Serif" font-size="20.00">Projection(ReadParquetFSSpec, [&#39;Year&#39;, &#39;dt&#39;, &#39;User&#39;, &#39;amount&#39;])</text>
</g>
<!-- 7987730228533462826&#45;&gt;&#45;2406770581442385140 -->
<g id="edge6" class="edge">
<title>7987730228533462826&#45;&gt;&#45;2406770581442385140</title>
<path fill="none" stroke="black" d="M308.5,-108.3C308.5,-116.02 308.5,-125.29 308.5,-133.89"/>
<polygon fill="black" stroke="black" points="305,-133.9 308.5,-143.9 312,-133.9 305,-133.9"/>
</g>
<!-- 8275416371643446108 -->
<g id="node8" class="node">
<title>8275416371643446108</title>
<polygon fill="none" stroke="black" points="416,-36 201,-36 201,0 416,0 416,-36"/>
<text text-anchor="middle" x="308.5" y="-13" font-family="Helvetica,sans-Serif" font-size="20.00">ReadParquetFSSpec</text>
</g>
<!-- 8275416371643446108&#45;&gt;7987730228533462826 -->
<g id="edge7" class="edge">
<title>8275416371643446108&#45;&gt;7987730228533462826</title>
<path fill="none" stroke="black" d="M308.5,-36.3C308.5,-44.02 308.5,-53.29 308.5,-61.89"/>
<polygon fill="black" stroke="black" points="305,-61.9 308.5,-71.9 312,-61.9 305,-61.9"/>
</g>
</g>
</svg>
